<svg width="18" height="21" viewBox="0 0 18 21" fill="none" xmlns="http://www.w3.org/2000/svg">
<path d="M9.69256 2.85712L6.36317 5.73321C5.99989 6.04704 5.53583 6.21972 5.05576 6.21973L3.49998 6.21974C2.11928 6.21975 1 7.33903 1 8.71974V12.0127C1 13.3934 2.11929 14.5127 3.5 14.5127H4.20813C4.71683 14.5127 5.20642 14.3189 5.57724 13.9706L13 7V4.3706C13 2.65827 10.9884 1.73774 9.69256 2.85712Z" fill="white"/>
<path d="M13 16.3618V12.5V11.0241C13 11.0152 12.9892 11.0108 12.9829 11.0171L8.0657 15.9343C8.02866 15.9713 8.02648 16.0307 8.06069 16.0703L9.40001 17.6226L9.69256 17.8753C10.9884 18.9947 13 18.0741 13 16.3618Z" fill="white"/>
<path d="M6.36317 5.73321L6.85346 6.30077L6.85346 6.30077L6.36317 5.73321ZM9.69256 2.85712L10.1828 3.42467L10.1828 3.42467L9.69256 2.85712ZM3.49998 6.21974L3.49998 5.46974L3.49998 5.46974L3.49998 6.21974ZM5.05576 6.21973L5.05577 6.96973L5.05577 6.96973L5.05576 6.21973ZM13 7L13.5134 7.54672L13.75 7.32455V7H13ZM9.69256 17.8753L10.1828 17.3077L10.1828 17.3077L9.69256 17.8753ZM9.40001 17.6226L8.83217 18.1125L8.8681 18.1542L8.90973 18.1901L9.40001 17.6226ZM8.06069 16.0703L8.62853 15.5804L8.62853 15.5804L8.06069 16.0703ZM5.57724 13.9706L5.06382 13.4239L5.06382 13.4239L5.57724 13.9706ZM12.9829 11.0171L12.4526 10.4867L12.4526 10.4867L12.9829 11.0171ZM8.0657 15.9343L8.59603 16.4646L8.59603 16.4646L8.0657 15.9343ZM6.85346 6.30077L10.1828 3.42467L9.20228 2.28956L5.87289 5.16565L6.85346 6.30077ZM3.49999 6.96974L5.05577 6.96973L5.05576 5.46973L3.49998 5.46974L3.49999 6.96974ZM1.75 12.0127V8.71974H0.25V12.0127H1.75ZM4.20813 13.7627H3.5V15.2627H4.20813V13.7627ZM12.25 12.5V16.3618H13.75V12.5H12.25ZM12.25 4.3706V7H13.75V4.3706H12.25ZM12.25 11.0241V12.5H13.75V11.0241H12.25ZM10.1828 17.3077L9.89029 17.055L8.90973 18.1901L9.20228 18.4428L10.1828 17.3077ZM9.96785 17.1326L8.62853 15.5804L7.49285 16.5603L8.83217 18.1125L9.96785 17.1326ZM12.4866 6.45328L5.06382 13.4239L6.09066 14.5174L13.5134 7.54672L12.4866 6.45328ZM12.4526 10.4867L7.53536 15.404L8.59603 16.4646L13.5132 11.5474L12.4526 10.4867ZM8.62853 15.5804C8.85095 15.8382 8.83677 16.2239 8.59603 16.4646L7.53537 15.404C7.22054 15.7188 7.202 16.2232 7.49285 16.5603L8.62853 15.5804ZM13.75 11.0241C13.75 10.3471 12.9314 10.008 12.4526 10.4867L13.5132 11.5474C13.0471 12.0136 12.25 11.6834 12.25 11.0241H13.75ZM12.25 16.3618C12.25 17.432 10.9927 18.0073 10.1828 17.3077L9.20228 18.4428C10.984 19.982 13.75 18.7163 13.75 16.3618H12.25ZM4.20813 15.2627C4.9076 15.2627 5.58078 14.9962 6.09066 14.5174L5.06382 13.4239C4.83206 13.6416 4.52607 13.7627 4.20813 13.7627V15.2627ZM0.25 12.0127C0.25 13.8076 1.70507 15.2627 3.5 15.2627V13.7627C2.5335 13.7627 1.75 12.9792 1.75 12.0127H0.25ZM3.49998 5.46974C1.70506 5.46975 0.25 6.92482 0.25 8.71974H1.75C1.75 7.75324 2.53349 6.96974 3.49999 6.96974L3.49998 5.46974ZM10.1828 3.42467C10.9927 2.72507 12.25 3.30039 12.25 4.3706H13.75C13.75 2.01615 10.984 0.750421 9.20228 2.28956L10.1828 3.42467ZM5.87289 5.16565C5.64583 5.3618 5.3558 5.46972 5.05576 5.46973L5.05577 6.96973C5.71587 6.96972 6.35394 6.73228 6.85346 6.30077L5.87289 5.16565Z" fill="white"/>
<path d="M17 3L2 18" stroke="white" stroke-width="1.5" stroke-linecap="round" stroke-linejoin="round"/>
</svg>
