<svg width="20" height="20" viewBox="0 0 20 20" fill="none" xmlns="http://www.w3.org/2000/svg">
<path fill-rule="evenodd" clip-rule="evenodd" d="M2 4.42871C0.895431 4.42871 0 5.32414 0 6.42871V8.08347C0 8.96669 0.579337 9.74534 1.42531 9.99913L8.85061 12.2267C9.60037 12.4516 10.3996 12.4516 11.1494 12.2267L18.5747 9.99913C19.4207 9.74534 20 8.96669 20 8.08347V6.42871C20 5.32414 19.1046 4.42871 18 4.42871H2ZM10.75 7.85742C10.75 7.44321 10.4142 7.10742 10 7.10742C9.58579 7.10742 9.25 7.44321 9.25 7.85742V9.5717C9.25 9.98591 9.58579 10.3217 10 10.3217C10.4142 10.3217 10.75 9.98591 10.75 9.5717V7.85742Z" fill="white"/>
<path fill-rule="evenodd" clip-rule="evenodd" d="M0.0834961 11.0123V14.9996C0.0834961 17.623 2.21015 19.7496 4.8335 19.7496H15.1668C17.7902 19.7496 19.9168 17.623 19.9168 14.9996V11.0121C19.6401 11.1932 19.3344 11.3371 19.0057 11.4357L11.5804 13.6633C10.5495 13.9725 9.4505 13.9725 8.41959 13.6633L0.994287 11.4357C0.665711 11.3371 0.36012 11.1933 0.0834961 11.0123ZM0.145108 8.83154L10.0002 10.4998L19.8549 8.8316C19.6323 9.38276 19.1694 9.82054 18.5747 9.99895L11.1494 12.2265C10.3996 12.4515 9.60037 12.4515 8.85061 12.2265L1.42531 9.99895C0.830583 9.82054 0.367635 9.38272 0.145108 8.83154ZM9.99951 11.9997L10.0001 11.9998L10 11.9998L9.99951 11.9997Z" fill="white"/>
<path d="M13.3332 4.42855V3C13.3332 1.89543 12.4377 1 11.3332 1H8.6665C7.56193 1 6.6665 1.89543 6.6665 3L6.6665 4.42855" stroke="white" stroke-width="1.5"/>
</svg>
