<svg width="20" height="20" viewBox="0 0 22 22" fill="none" xmlns="http://www.w3.org/2000/svg">
<path d="M1.23904 19.0292L0.531891 18.7793L0.531891 18.7793L1.23904 19.0292ZM2.77029 20.5605L3.02016 21.2676L3.02016 21.2676L2.77029 20.5605ZM5.29287 19.6691L5.54275 20.3762L5.29287 19.6691ZM6.15819 19.7518L5.79453 20.4077L6.15819 19.7518ZM2.10106 15.5662L1.43406 15.9092L2.10106 15.5662ZM1.75002 11C1.75002 5.89137 5.89138 1.75 11 1.75V0.25C5.06295 0.25 0.250015 5.06294 0.250015 11H1.75002ZM2.76806 15.2233C2.11753 13.9581 1.75002 12.523 1.75002 11H0.250015C0.250015 12.7671 0.676988 14.4367 1.43406 15.9092L2.76806 15.2233ZM1.94619 19.2791L2.87447 16.6521L1.46017 16.1523L0.531891 18.7793L1.94619 19.2791ZM2.52041 19.8533C2.16373 19.9793 1.82016 19.6358 1.94619 19.2791L0.531891 18.7793C-0.0142564 20.3249 1.47457 21.8138 3.02016 21.2676L2.52041 19.8533ZM5.043 18.9619L2.52041 19.8533L3.02016 21.2676L5.54275 20.3762L5.043 18.9619ZM11 20.25C9.37396 20.25 7.84799 19.8311 6.52185 19.0958L5.79453 20.4077C7.33753 21.2632 9.11305 21.75 11 21.75V20.25ZM20.25 11C20.25 16.1086 16.1086 20.25 11 20.25V21.75C16.9371 21.75 21.75 16.9371 21.75 11H20.25ZM11 1.75C16.1086 1.75 20.25 5.89137 20.25 11H21.75C21.75 5.06294 16.9371 0.25 11 0.25V1.75ZM5.54275 20.3762C5.60824 20.3531 5.70012 20.3554 5.79453 20.4077L6.52185 19.0958C6.08624 18.8543 5.54891 18.7832 5.043 18.9619L5.54275 20.3762ZM1.43406 15.9092C1.48142 16.0013 1.48245 16.0893 1.46017 16.1523L2.87447 16.6521C3.04635 16.1657 2.98715 15.6494 2.76806 15.2233L1.43406 15.9092Z" fill="white"/>
<circle cx="6.05" cy="11.0498" r="1.25" fill="white"/>
<circle cx="11.05" cy="11.0498" r="1.25" fill="white"/>
<circle cx="16.05" cy="11.0498" r="1.25" fill="white"/>
</svg>
